<?xml version="1.0" standalone="no"?>
<!DOCTYPE svg PUBLIC "-//W3C//DTD SVG 20010904//EN"
 "http://www.w3.org/TR/2001/REC-SVG-20010904/DTD/svg10.dtd">
<svg version="1.0" xmlns="http://www.w3.org/2000/svg"
 width="512.000000pt" height="512.000000pt" viewBox="0 0 512.000000 512.000000"
 preserveAspectRatio="xMidYMid meet">
<metadata>
Created by potrace 1.11, written by Peter Selinger 2001-2013
</metadata>
<g transform="translate(0.000000,512.000000) scale(0.100000,-0.100000)"
fill="#000000" stroke="none">
<path d="M2971 4913 c-5 -10 -215 -558 -466 -1218 -252 -660 -458 -1201 -460
-1203 -1 -1 -218 243 -481 542 -408 464 -480 542 -485 523 -3 -12 -9 -43 -13
-68 l-7 -46 586 -764 c322 -420 589 -765 593 -766 6 -2 1364 2935 1388 3000 6
16 -14 17 -320 17 -300 0 -326 -1 -335 -17z"/>
<path d="M1495 4589 c-263 -27 -524 -120 -742 -265 -117 -77 -319 -280 -401
-401 -449 -666 -370 -1554 188 -2103 127 -125 253 -214 430 -303 217 -110 436
-174 720 -214 212 -29 616 -23 868 13 l42 6 0 70 0 71 -37 -6 c-226 -36 -653
-34 -863 3 -548 97 -950 371 -1175 802 -195 373 -221 853 -68 1263 79 214 185
379 347 540 168 168 330 269 540 339 277 92 621 99 946 20 56 -13 103 -24 104
-24 6 0 39 80 35 84 -9 8 -211 56 -314 75 -207 39 -432 50 -620 30z"/>
<path d="M3970 4393 c444 -386 708 -845 801 -1393 30 -178 33 -504 6 -680 -77
-495 -292 -924 -642 -1276 -391 -394 -864 -625 -1435 -700 -175 -23 -534 -15
-710 15 -206 35 -415 100 -635 195 -121 53 91 -82 271 -172 533 -267 1152
-328 1740 -173 154 41 285 91 449 171 729 358 1213 1049 1296 1849 14 138 7
404 -16 546 -100 638 -468 1208 -1015 1569 -52 35 -111 71 -130 80 -31 15 -28
11 20 -31z"/>
<path d="M3343 3336 c-180 -35 -303 -142 -339 -295 -38 -158 9 -299 123 -372
67 -42 127 -62 308 -103 190 -43 255 -72 293 -129 22 -33 27 -51 26 -101 0
-36 -7 -74 -17 -92 -23 -45 -87 -96 -145 -117 -113 -41 -326 -39 -488 4 -139
37 -124 42 -124 -40 0 -62 3 -72 23 -85 81 -54 400 -82 577 -52 110 19 217 66
279 121 22 21 55 67 73 103 31 62 33 73 33 172 0 95 -3 110 -28 162 -56 115
-154 166 -422 223 -183 38 -260 79 -296 159 -47 104 1 217 113 266 102 44 323
36 506 -19 l62 -19 0 78 0 78 -48 16 c-139 46 -381 66 -509 42z"/>
</g>
</svg>
